<mxfile host="app.diagrams.net" modified="2021-03-18T10:04:09.840Z" agent="5.0 (Windows NT 10.0; Win64; x64) AppleWebKit/537.36 (KHTML, like Gecko) Chrome/89.0.4389.82 Safari/537.36" etag="xmtykHifte2ELHZI1jpa" version="14.4.8" type="github">
  <diagram id="l5VUs57f16sQzUXNh8wB" name="Page-1">
    <mxGraphModel dx="2044" dy="874" grid="1" gridSize="10" guides="1" tooltips="1" connect="1" arrows="1" fold="1" page="1" pageScale="1" pageWidth="827" pageHeight="1169" math="0" shadow="0">
      <root>
        <mxCell id="0" />
        <mxCell id="1" parent="0" />
        <mxCell id="8i5R2quxsmmXq8oSvWyt-55" value="" style="shape=folder;fontStyle=1;spacingTop=30;tabWidth=40;tabHeight=14;tabPosition=left;html=1;noLabel=0;labelPosition=center;verticalLabelPosition=top;align=center;verticalAlign=bottom;fontSize=12;" vertex="1" parent="1">
          <mxGeometry x="30" y="785" width="1080" height="390" as="geometry" />
        </mxCell>
        <mxCell id="8i5R2quxsmmXq8oSvWyt-56" value="" style="shape=folder;fontStyle=1;spacingTop=30;tabWidth=40;tabHeight=14;tabPosition=left;html=1;noLabel=0;labelPosition=center;verticalLabelPosition=top;align=center;verticalAlign=bottom;fontSize=12;" vertex="1" parent="1">
          <mxGeometry x="50" width="1080" height="220" as="geometry" />
        </mxCell>
        <mxCell id="8i5R2quxsmmXq8oSvWyt-57" value="" style="shape=folder;fontStyle=1;spacingTop=30;tabWidth=40;tabHeight=14;tabPosition=left;html=1;noLabel=0;labelPosition=center;verticalLabelPosition=top;align=center;verticalAlign=bottom;fontSize=12;" vertex="1" parent="1">
          <mxGeometry x="30" y="490" width="1080" height="220" as="geometry" />
        </mxCell>
        <mxCell id="8i5R2quxsmmXq8oSvWyt-58" value="" style="shape=folder;fontStyle=1;spacingTop=30;tabWidth=40;tabHeight=14;tabPosition=left;html=1;noLabel=0;labelPosition=center;verticalLabelPosition=top;align=center;verticalAlign=bottom;fontSize=12;" vertex="1" parent="1">
          <mxGeometry x="30" y="230" width="1080" height="220" as="geometry" />
        </mxCell>
        <mxCell id="8i5R2quxsmmXq8oSvWyt-59" value="«controller»&#xa;WeatherAppController&#xa;&#xa;" style="swimlane;fontStyle=1;align=center;verticalAlign=top;childLayout=stackLayout;horizontal=1;startSize=40;horizontalStack=0;resizeParent=1;resizeParentMax=0;resizeLast=0;collapsible=1;marginBottom=0;" vertex="1" parent="1">
          <mxGeometry x="410" y="50" width="300" height="120" as="geometry">
            <mxRectangle x="210" y="70" width="100" height="26" as="alternateBounds" />
          </mxGeometry>
        </mxCell>
        <mxCell id="8i5R2quxsmmXq8oSvWyt-60" value="-locationSearchService: LocationSearchInterface&#xa;-weatherForecastService: WeatherForecastInterface" style="text;strokeColor=none;fillColor=none;align=left;verticalAlign=top;spacingLeft=4;spacingRight=4;overflow=hidden;rotatable=0;points=[[0,0.5],[1,0.5]];portConstraint=eastwest;" vertex="1" parent="8i5R2quxsmmXq8oSvWyt-59">
          <mxGeometry y="40" width="300" height="40" as="geometry" />
        </mxCell>
        <mxCell id="8i5R2quxsmmXq8oSvWyt-61" value="" style="line;strokeWidth=1;fillColor=none;align=left;verticalAlign=middle;spacingTop=-1;spacingLeft=3;spacingRight=3;rotatable=0;labelPosition=right;points=[];portConstraint=eastwest;" vertex="1" parent="8i5R2quxsmmXq8oSvWyt-59">
          <mxGeometry y="80" width="300" height="8" as="geometry" />
        </mxCell>
        <mxCell id="8i5R2quxsmmXq8oSvWyt-62" value="+getForecast(location: String): String" style="text;strokeColor=none;fillColor=none;align=left;verticalAlign=top;spacingLeft=4;spacingRight=4;overflow=hidden;rotatable=0;points=[[0,0.5],[1,0.5]];portConstraint=eastwest;" vertex="1" parent="8i5R2quxsmmXq8oSvWyt-59">
          <mxGeometry y="88" width="300" height="32" as="geometry" />
        </mxCell>
        <mxCell id="8i5R2quxsmmXq8oSvWyt-63" value="«interface»&#xa;LocationSearchInterface&#xa;" style="swimlane;fontStyle=1;align=center;verticalAlign=top;childLayout=stackLayout;horizontal=1;startSize=40;horizontalStack=0;resizeParent=1;resizeParentMax=0;resizeLast=0;collapsible=1;marginBottom=0;" vertex="1" parent="1">
          <mxGeometry x="40" y="310" width="300" height="70" as="geometry">
            <mxRectangle x="210" y="70" width="100" height="26" as="alternateBounds" />
          </mxGeometry>
        </mxCell>
        <mxCell id="8i5R2quxsmmXq8oSvWyt-64" value="+getLocationId(locationName: String): Int" style="text;strokeColor=none;fillColor=none;align=left;verticalAlign=top;spacingLeft=4;spacingRight=4;overflow=hidden;rotatable=0;points=[[0,0.5],[1,0.5]];portConstraint=eastwest;" vertex="1" parent="8i5R2quxsmmXq8oSvWyt-63">
          <mxGeometry y="40" width="300" height="30" as="geometry" />
        </mxCell>
        <mxCell id="8i5R2quxsmmXq8oSvWyt-65" value="«interface»&#xa;WeatherForecastInterface" style="swimlane;fontStyle=1;align=center;verticalAlign=top;childLayout=stackLayout;horizontal=1;startSize=40;horizontalStack=0;resizeParent=1;resizeParentMax=0;resizeLast=0;collapsible=1;marginBottom=0;" vertex="1" parent="1">
          <mxGeometry x="385" y="310" width="330" height="70" as="geometry">
            <mxRectangle x="210" y="70" width="100" height="26" as="alternateBounds" />
          </mxGeometry>
        </mxCell>
        <mxCell id="8i5R2quxsmmXq8oSvWyt-66" value="+getForecastData(locationId: Int): WeatherForecastData" style="text;strokeColor=none;fillColor=none;align=left;verticalAlign=top;spacingLeft=4;spacingRight=4;overflow=hidden;rotatable=0;points=[[0,0.5],[1,0.5]];portConstraint=eastwest;" vertex="1" parent="8i5R2quxsmmXq8oSvWyt-65">
          <mxGeometry y="40" width="330" height="30" as="geometry" />
        </mxCell>
        <mxCell id="8i5R2quxsmmXq8oSvWyt-67" value="«service»&#xa;LocationSearchService" style="swimlane;fontStyle=1;align=center;verticalAlign=top;childLayout=stackLayout;horizontal=1;startSize=40;horizontalStack=0;resizeParent=1;resizeParentMax=0;resizeLast=0;collapsible=1;marginBottom=0;" vertex="1" parent="1">
          <mxGeometry x="50" y="580" width="300" height="70" as="geometry">
            <mxRectangle x="210" y="70" width="100" height="26" as="alternateBounds" />
          </mxGeometry>
        </mxCell>
        <mxCell id="8i5R2quxsmmXq8oSvWyt-68" value="&lt;&lt;override&gt;&gt;+getLocationId(locationName: String): Int" style="text;strokeColor=none;fillColor=none;align=left;verticalAlign=top;spacingLeft=4;spacingRight=4;overflow=hidden;rotatable=0;points=[[0,0.5],[1,0.5]];portConstraint=eastwest;" vertex="1" parent="8i5R2quxsmmXq8oSvWyt-67">
          <mxGeometry y="40" width="300" height="30" as="geometry" />
        </mxCell>
        <mxCell id="8i5R2quxsmmXq8oSvWyt-69" value="«service»&#xa;TimeService" style="swimlane;fontStyle=1;align=center;verticalAlign=top;childLayout=stackLayout;horizontal=1;startSize=40;horizontalStack=0;resizeParent=1;resizeParentMax=0;resizeLast=0;collapsible=1;marginBottom=0;" vertex="1" parent="1">
          <mxGeometry x="790" y="580" width="300" height="70" as="geometry">
            <mxRectangle x="210" y="70" width="100" height="26" as="alternateBounds" />
          </mxGeometry>
        </mxCell>
        <mxCell id="8i5R2quxsmmXq8oSvWyt-70" value="+getCurrentTime(): String" style="text;strokeColor=none;fillColor=none;align=left;verticalAlign=top;spacingLeft=4;spacingRight=4;overflow=hidden;rotatable=0;points=[[0,0.5],[1,0.5]];portConstraint=eastwest;" vertex="1" parent="8i5R2quxsmmXq8oSvWyt-69">
          <mxGeometry y="40" width="300" height="30" as="geometry" />
        </mxCell>
        <mxCell id="8i5R2quxsmmXq8oSvWyt-71" value="«service»&#xa;WeatherForecastService&#xa;&#xa;" style="swimlane;fontStyle=1;align=center;verticalAlign=top;childLayout=stackLayout;horizontal=1;startSize=40;horizontalStack=0;resizeParent=1;resizeParentMax=0;resizeLast=0;collapsible=1;marginBottom=0;" vertex="1" parent="1">
          <mxGeometry x="380" y="561" width="390" height="108" as="geometry">
            <mxRectangle x="210" y="70" width="100" height="26" as="alternateBounds" />
          </mxGeometry>
        </mxCell>
        <mxCell id="8i5R2quxsmmXq8oSvWyt-72" value="-timeService: TimeService" style="text;strokeColor=none;fillColor=none;align=left;verticalAlign=top;spacingLeft=4;spacingRight=4;overflow=hidden;rotatable=0;points=[[0,0.5],[1,0.5]];portConstraint=eastwest;" vertex="1" parent="8i5R2quxsmmXq8oSvWyt-71">
          <mxGeometry y="40" width="390" height="30" as="geometry" />
        </mxCell>
        <mxCell id="8i5R2quxsmmXq8oSvWyt-73" value="" style="line;strokeWidth=1;fillColor=none;align=left;verticalAlign=middle;spacingTop=-1;spacingLeft=3;spacingRight=3;rotatable=0;labelPosition=right;points=[];portConstraint=eastwest;" vertex="1" parent="8i5R2quxsmmXq8oSvWyt-71">
          <mxGeometry y="70" width="390" height="8" as="geometry" />
        </mxCell>
        <mxCell id="8i5R2quxsmmXq8oSvWyt-74" value="&lt;&lt;override&gt;&gt;+getForecastData(locationId: Int): WeatherForecastData" style="text;strokeColor=none;fillColor=none;align=left;verticalAlign=top;spacingLeft=4;spacingRight=4;overflow=hidden;rotatable=0;points=[[0,0.5],[1,0.5]];portConstraint=eastwest;" vertex="1" parent="8i5R2quxsmmXq8oSvWyt-71">
          <mxGeometry y="78" width="390" height="30" as="geometry" />
        </mxCell>
        <mxCell id="8i5R2quxsmmXq8oSvWyt-75" value="WeatherForecastData" style="swimlane;fontStyle=0;childLayout=stackLayout;horizontal=1;startSize=26;fillColor=none;horizontalStack=0;resizeParent=1;resizeParentMax=0;resizeLast=0;collapsible=1;marginBottom=0;" vertex="1" parent="1">
          <mxGeometry x="462.5" y="830" width="195" height="300" as="geometry" />
        </mxCell>
        <mxCell id="8i5R2quxsmmXq8oSvWyt-76" value="+ location: String" style="text;strokeColor=none;fillColor=none;align=left;verticalAlign=top;spacingLeft=4;spacingRight=4;overflow=hidden;rotatable=0;points=[[0,0.5],[1,0.5]];portConstraint=eastwest;" vertex="1" parent="8i5R2quxsmmXq8oSvWyt-75">
          <mxGeometry y="26" width="195" height="26" as="geometry" />
        </mxCell>
        <mxCell id="8i5R2quxsmmXq8oSvWyt-77" value="+ date: String" style="text;strokeColor=none;fillColor=none;align=left;verticalAlign=top;spacingLeft=4;spacingRight=4;overflow=hidden;rotatable=0;points=[[0,0.5],[1,0.5]];portConstraint=eastwest;" vertex="1" parent="8i5R2quxsmmXq8oSvWyt-75">
          <mxGeometry y="52" width="195" height="26" as="geometry" />
        </mxCell>
        <mxCell id="8i5R2quxsmmXq8oSvWyt-78" value="+ weatherStateIconURL: String" style="text;strokeColor=none;fillColor=none;align=left;verticalAlign=top;spacingLeft=4;spacingRight=4;overflow=hidden;rotatable=0;points=[[0,0.5],[1,0.5]];portConstraint=eastwest;" vertex="1" parent="8i5R2quxsmmXq8oSvWyt-75">
          <mxGeometry y="78" width="195" height="26" as="geometry" />
        </mxCell>
        <mxCell id="8i5R2quxsmmXq8oSvWyt-79" value="+ weatherState: String&#xa;" style="text;strokeColor=none;fillColor=none;align=left;verticalAlign=top;spacingLeft=4;spacingRight=4;overflow=hidden;rotatable=0;points=[[0,0.5],[1,0.5]];portConstraint=eastwest;" vertex="1" parent="8i5R2quxsmmXq8oSvWyt-75">
          <mxGeometry y="104" width="195" height="26" as="geometry" />
        </mxCell>
        <mxCell id="8i5R2quxsmmXq8oSvWyt-80" value="+ windDirection: Direction" style="text;strokeColor=none;fillColor=none;align=left;verticalAlign=top;spacingLeft=4;spacingRight=4;overflow=hidden;rotatable=0;points=[[0,0.5],[1,0.5]];portConstraint=eastwest;" vertex="1" parent="8i5R2quxsmmXq8oSvWyt-75">
          <mxGeometry y="130" width="195" height="26" as="geometry" />
        </mxCell>
        <mxCell id="8i5R2quxsmmXq8oSvWyt-81" value="+ windSpeed: Int" style="text;strokeColor=none;fillColor=none;align=left;verticalAlign=top;spacingLeft=4;spacingRight=4;overflow=hidden;rotatable=0;points=[[0,0.5],[1,0.5]];portConstraint=eastwest;" vertex="1" parent="8i5R2quxsmmXq8oSvWyt-75">
          <mxGeometry y="156" width="195" height="24" as="geometry" />
        </mxCell>
        <mxCell id="8i5R2quxsmmXq8oSvWyt-82" value="+ minTemp: Int" style="text;strokeColor=none;fillColor=none;align=left;verticalAlign=top;spacingLeft=4;spacingRight=4;overflow=hidden;rotatable=0;points=[[0,0.5],[1,0.5]];portConstraint=eastwest;" vertex="1" parent="8i5R2quxsmmXq8oSvWyt-75">
          <mxGeometry y="180" width="195" height="30" as="geometry" />
        </mxCell>
        <mxCell id="8i5R2quxsmmXq8oSvWyt-83" value="+ maxTemp: Int" style="text;strokeColor=none;fillColor=none;align=left;verticalAlign=top;spacingLeft=4;spacingRight=4;overflow=hidden;rotatable=0;points=[[0,0.5],[1,0.5]];portConstraint=eastwest;" vertex="1" parent="8i5R2quxsmmXq8oSvWyt-75">
          <mxGeometry y="210" width="195" height="30" as="geometry" />
        </mxCell>
        <mxCell id="8i5R2quxsmmXq8oSvWyt-84" value="+ currentTemp: Int" style="text;strokeColor=none;fillColor=none;align=left;verticalAlign=top;spacingLeft=4;spacingRight=4;overflow=hidden;rotatable=0;points=[[0,0.5],[1,0.5]];portConstraint=eastwest;" vertex="1" parent="8i5R2quxsmmXq8oSvWyt-75">
          <mxGeometry y="240" width="195" height="30" as="geometry" />
        </mxCell>
        <mxCell id="8i5R2quxsmmXq8oSvWyt-85" value="+ humidity: Int" style="text;strokeColor=none;fillColor=none;align=left;verticalAlign=top;spacingLeft=4;spacingRight=4;overflow=hidden;rotatable=0;points=[[0,0.5],[1,0.5]];portConstraint=eastwest;" vertex="1" parent="8i5R2quxsmmXq8oSvWyt-75">
          <mxGeometry y="270" width="195" height="30" as="geometry" />
        </mxCell>
        <mxCell id="8i5R2quxsmmXq8oSvWyt-86" value="«interface»&#xa;TimeServiceInterface" style="swimlane;fontStyle=1;align=center;verticalAlign=top;childLayout=stackLayout;horizontal=1;startSize=40;horizontalStack=0;resizeParent=1;resizeParentMax=0;resizeLast=0;collapsible=1;marginBottom=0;" vertex="1" parent="1">
          <mxGeometry x="750" y="310" width="330" height="70" as="geometry">
            <mxRectangle x="210" y="70" width="100" height="26" as="alternateBounds" />
          </mxGeometry>
        </mxCell>
        <mxCell id="8i5R2quxsmmXq8oSvWyt-87" value="+getCurrentTime(): String" style="text;strokeColor=none;fillColor=none;align=left;verticalAlign=top;spacingLeft=4;spacingRight=4;overflow=hidden;rotatable=0;points=[[0,0.5],[1,0.5]];portConstraint=eastwest;" vertex="1" parent="8i5R2quxsmmXq8oSvWyt-86">
          <mxGeometry y="40" width="330" height="30" as="geometry" />
        </mxCell>
        <mxCell id="8i5R2quxsmmXq8oSvWyt-88" value="" style="endArrow=diamondThin;endFill=0;endSize=24;html=1;" edge="1" parent="1" source="8i5R2quxsmmXq8oSvWyt-65">
          <mxGeometry width="160" relative="1" as="geometry">
            <mxPoint x="460" y="170" as="sourcePoint" />
            <mxPoint x="550" y="170" as="targetPoint" />
          </mxGeometry>
        </mxCell>
        <mxCell id="8i5R2quxsmmXq8oSvWyt-91" value="" style="endArrow=block;dashed=1;endFill=0;endSize=12;html=1;" edge="1" parent="1" source="8i5R2quxsmmXq8oSvWyt-71" target="8i5R2quxsmmXq8oSvWyt-66">
          <mxGeometry width="160" relative="1" as="geometry">
            <mxPoint x="460" y="460" as="sourcePoint" />
            <mxPoint x="620" y="460" as="targetPoint" />
          </mxGeometry>
        </mxCell>
        <mxCell id="8i5R2quxsmmXq8oSvWyt-92" value="" style="endArrow=block;dashed=1;endFill=0;endSize=12;html=1;exitX=0.541;exitY=-0.003;exitDx=0;exitDy=0;exitPerimeter=0;entryX=0.622;entryY=1.105;entryDx=0;entryDy=0;entryPerimeter=0;" edge="1" parent="1" source="8i5R2quxsmmXq8oSvWyt-69" target="8i5R2quxsmmXq8oSvWyt-87">
          <mxGeometry width="160" relative="1" as="geometry">
            <mxPoint x="563.8848920863306" y="400" as="sourcePoint" />
            <mxPoint x="920" y="322" as="targetPoint" />
            <Array as="points" />
          </mxGeometry>
        </mxCell>
        <mxCell id="8i5R2quxsmmXq8oSvWyt-93" value="" style="endArrow=block;dashed=1;endFill=0;endSize=12;html=1;exitX=0.467;exitY=0.011;exitDx=0;exitDy=0;exitPerimeter=0;" edge="1" parent="1" source="8i5R2quxsmmXq8oSvWyt-67">
          <mxGeometry width="160" relative="1" as="geometry">
            <mxPoint x="947.2999999999997" y="399.78999999999996" as="sourcePoint" />
            <mxPoint x="186" y="380" as="targetPoint" />
            <Array as="points" />
          </mxGeometry>
        </mxCell>
        <mxCell id="8i5R2quxsmmXq8oSvWyt-94" value="Use" style="endArrow=open;endSize=12;dashed=1;html=1;fontSize=12;exitX=0.5;exitY=1;exitDx=0;exitDy=0;exitPerimeter=0;entryX=0.502;entryY=0.026;entryDx=0;entryDy=0;entryPerimeter=0;" edge="1" parent="1" source="8i5R2quxsmmXq8oSvWyt-57" target="8i5R2quxsmmXq8oSvWyt-55">
          <mxGeometry width="160" relative="1" as="geometry">
            <mxPoint x="490" y="740" as="sourcePoint" />
            <mxPoint x="650" y="740" as="targetPoint" />
          </mxGeometry>
        </mxCell>
        <mxCell id="8i5R2quxsmmXq8oSvWyt-95" value="Interfaces" style="text;align=center;fontStyle=1;verticalAlign=middle;spacingLeft=3;spacingRight=3;strokeColor=none;rotatable=0;points=[[0,0.5],[1,0.5]];portConstraint=eastwest;fontSize=12;" vertex="1" parent="1">
          <mxGeometry x="550" y="250" width="80" height="26" as="geometry" />
        </mxCell>
        <mxCell id="8i5R2quxsmmXq8oSvWyt-96" value="Controllers" style="text;align=center;fontStyle=1;verticalAlign=middle;spacingLeft=3;spacingRight=3;strokeColor=none;rotatable=0;points=[[0,0.5],[1,0.5]];portConstraint=eastwest;fontSize=12;" vertex="1" parent="1">
          <mxGeometry x="520" y="10" width="80" height="26" as="geometry" />
        </mxCell>
        <mxCell id="8i5R2quxsmmXq8oSvWyt-97" value="Service" style="text;align=center;fontStyle=1;verticalAlign=middle;spacingLeft=3;spacingRight=3;strokeColor=none;rotatable=0;points=[[0,0.5],[1,0.5]];portConstraint=eastwest;fontSize=12;" vertex="1" parent="1">
          <mxGeometry x="535" y="514" width="80" height="26" as="geometry" />
        </mxCell>
        <mxCell id="8i5R2quxsmmXq8oSvWyt-98" value="POJO" style="text;align=center;fontStyle=1;verticalAlign=middle;spacingLeft=3;spacingRight=3;strokeColor=none;rotatable=0;points=[[0,0.5],[1,0.5]];portConstraint=eastwest;fontSize=12;" vertex="1" parent="1">
          <mxGeometry x="520" y="794" width="80" height="26" as="geometry" />
        </mxCell>
        <mxCell id="8i5R2quxsmmXq8oSvWyt-99" value="" style="endArrow=diamondThin;endFill=0;endSize=24;html=1;exitX=0.5;exitY=0;exitDx=0;exitDy=0;entryX=0.616;entryY=1.063;entryDx=0;entryDy=0;entryPerimeter=0;" edge="1" parent="1" source="8i5R2quxsmmXq8oSvWyt-86" target="8i5R2quxsmmXq8oSvWyt-62">
          <mxGeometry width="160" relative="1" as="geometry">
            <mxPoint x="560" y="320" as="sourcePoint" />
            <mxPoint x="560" y="180" as="targetPoint" />
            <Array as="points" />
          </mxGeometry>
        </mxCell>
        <mxCell id="8i5R2quxsmmXq8oSvWyt-100" value="" style="endArrow=diamondThin;endFill=0;endSize=24;html=1;exitX=0.75;exitY=0;exitDx=0;exitDy=0;entryX=0.327;entryY=1.063;entryDx=0;entryDy=0;entryPerimeter=0;" edge="1" parent="1" source="8i5R2quxsmmXq8oSvWyt-63" target="8i5R2quxsmmXq8oSvWyt-62">
          <mxGeometry width="160" relative="1" as="geometry">
            <mxPoint x="560" y="320" as="sourcePoint" />
            <mxPoint x="560" y="180" as="targetPoint" />
          </mxGeometry>
        </mxCell>
      </root>
    </mxGraphModel>
  </diagram>
</mxfile>
